<svg width="100" height="100" viewBox="0 0 100 100" fill="none" xmlns="http://www.w3.org/2000/svg">
<path d="M83.125 87.5C74.4444 87.5 65.8681 85.6083 57.3958 81.825C48.9236 78.0417 41.2153 72.6764 34.2708 65.7292C27.3264 58.7819 21.9625 51.0736 18.1792 42.6042C14.3958 34.1347 12.5028 25.5583 12.5 16.875C12.5 15.625 12.9167 14.5833 13.75 13.75C14.5833 12.9167 15.625 12.5 16.875 12.5H33.75C34.7222 12.5 35.5903 12.8306 36.3542 13.4917C37.1181 14.1528 37.5694 14.9333 37.7083 15.8333L40.4167 30.4167C40.5556 31.5278 40.5208 32.4653 40.3125 33.2292C40.1042 33.9931 39.7222 34.6528 39.1667 35.2083L29.0625 45.4167C30.4514 47.9861 32.1 50.4681 34.0083 52.8625C35.9167 55.2569 38.0181 57.5667 40.3125 59.7917C42.4653 61.9444 44.7222 63.9417 47.0833 65.7833C49.4444 67.625 51.9444 69.3083 54.5833 70.8333L64.375 61.0417C65 60.4167 65.8167 59.9486 66.825 59.6375C67.8333 59.3264 68.8222 59.2389 69.7917 59.375L84.1667 62.2917C85.1389 62.5694 85.9375 63.0736 86.5625 63.8042C87.1875 64.5347 87.5 65.35 87.5 66.25V83.125C87.5 84.375 87.0833 85.4167 86.25 86.25C85.4167 87.0833 84.375 87.5 83.125 87.5Z" fill="#0F3460"/>
</svg>
