<svg width="15" height="15" viewBox="0 0 15 15" fill="none" xmlns="http://www.w3.org/2000/svg">
<g clip-path="url(#clip0_36_174)">
<path d="M7.5 0.625C11.2969 0.625 14.375 3.70312 14.375 7.5C14.375 11.2969 11.2969 14.375 7.5 14.375C3.70312 14.375 0.625 11.2969 0.625 7.5C0.625 3.70312 3.70312 0.625 7.5 0.625ZM5.95312 9.0475C5.74999 8.84436 5.58885 8.6032 5.47891 8.33779C5.36897 8.07237 5.31239 7.78791 5.31239 7.50063C5.31239 7.21334 5.36897 6.92888 5.47891 6.66346C5.58885 6.39805 5.74999 6.15689 5.95312 5.95375C6.15626 5.75061 6.39742 5.58947 6.66284 5.47954C6.92825 5.3696 7.21272 5.31301 7.5 5.31301C7.78728 5.31301 8.07175 5.3696 8.33716 5.47954C8.60258 5.58947 8.84374 5.75061 9.04688 5.95375L9.48875 6.39563L10.3725 5.51188L9.93062 5.07C9.44989 4.58924 8.83738 4.26184 8.17057 4.12919C7.50376 3.99654 6.81258 4.0646 6.18445 4.32477C5.55632 4.58495 5.01945 5.02554 4.64172 5.59084C4.264 6.15613 4.06239 6.82075 4.06239 7.50063C4.06239 8.18051 4.264 8.84512 4.64172 9.41041C5.01945 9.97571 5.55632 10.4163 6.18445 10.6765C6.81258 10.9366 7.50376 11.0047 8.17057 10.8721C8.83738 10.7394 9.44989 10.412 9.93062 9.93125L10.3725 9.48938L9.48875 8.605L9.04688 9.0475C8.84374 9.25065 8.60259 9.4118 8.33717 9.52175C8.07176 9.63169 7.78729 9.68828 7.5 9.68828C7.21271 9.68828 6.92824 9.63169 6.66283 9.52175C6.39741 9.4118 6.15626 9.25065 5.95312 9.0475Z" fill="#0F3460"/>
</g>
<defs>
<clipPath id="clip0_36_174">
<rect width="15" height="15" fill="white"/>
</clipPath>
</defs>
</svg>
