<svg width="76" height="76" viewBox="0 0 76 76" fill="none" xmlns="http://www.w3.org/2000/svg">
<path d="M71.125 75.5C62.4444 75.5 53.8681 73.6083 45.3958 69.825C36.9236 66.0417 29.2153 60.6764 22.2708 53.7292C15.3264 46.7819 9.9625 39.0736 6.17917 30.6042C2.39583 22.1347 0.502778 13.5583 0.5 4.875C0.5 3.625 0.916666 2.58333 1.75 1.75C2.58333 0.916666 3.625 0.5 4.875 0.5H21.75C22.7222 0.5 23.5903 0.830555 24.3542 1.49167C25.1181 2.15278 25.5694 2.93333 25.7083 3.83333L28.4167 18.4167C28.5556 19.5278 28.5208 20.4653 28.3125 21.2292C28.1042 21.9931 27.7222 22.6528 27.1667 23.2083L17.0625 33.4167C18.4514 35.9861 20.1 38.4681 22.0083 40.8625C23.9167 43.2569 26.0181 45.5667 28.3125 47.7917C30.4653 49.9444 32.7222 51.9417 35.0833 53.7833C37.4444 55.625 39.9444 57.3083 42.5833 58.8333L52.375 49.0417C53 48.4167 53.8167 47.9486 54.825 47.6375C55.8333 47.3264 56.8222 47.2389 57.7917 47.375L72.1667 50.2917C73.1389 50.5694 73.9375 51.0736 74.5625 51.8042C75.1875 52.5347 75.5 53.35 75.5 54.25V71.125C75.5 72.375 75.0833 73.4167 74.25 74.25C73.4167 75.0833 72.375 75.5 71.125 75.5Z" fill="#0F3460"/>
</svg>
