<svg width="150" height="200" viewBox="0 0 150 200" fill="none" xmlns="http://www.w3.org/2000/svg">
<path d="M75 68.6333C36.7 68.6333 5.65625 82.75 5.65625 100.017C5.65625 117.283 36.7 131.392 75 131.392C113.294 131.392 144.337 117.283 144.337 100.017C144.337 82.75 113.294 68.6333 75 68.6333ZM39.3875 120.633C35.2875 120.675 31.6812 117.3 31.2625 111.458C31.0278 108.415 31.6864 105.368 33.1 102.958C34.3187 100.842 36.3812 99.0833 38.125 98.65C38.6875 98.5083 39.4562 98.6 39.775 99.1C40.2687 99.875 40.125 100.717 39.6313 101.05C38.3 101.958 36.6937 103.508 35.9 105.633C35.5397 106.536 35.3693 107.551 35.4067 108.572C35.4441 109.593 35.688 110.582 36.1125 111.433C37.7562 114.742 42.3438 114.833 46.6062 109.558C47.6625 108.258 48.6063 107.025 49.5625 105.558C51.4375 102.692 52.0625 101.642 54.5625 97.025C54.5917 96.9694 54.6 96.9194 54.5875 96.875C54.5708 96.8194 54.5292 96.7917 54.4625 96.7917C52.7937 96.85 51.3375 97.5167 49.9312 98.9167C49.525 99.3167 48.9375 99.2583 48.6813 98.7417C48.3937 98.1583 48.6 97.3833 49.0687 96.95C51.3375 94.8417 53.8188 94.4667 56.3563 93.8917C56.3563 93.8917 56.5312 93.9083 56.675 93.6417C57.7188 91.8667 58.5 90.2667 59.6125 88.4667C60.725 86.6333 62.175 84.9667 63.275 83.7C64.8125 81.9333 65.8 81.3417 66.8 80.6167C67.0687 80.4333 66.7688 80.2083 66.6875 80.2083C61.0875 78.8083 55.2687 76.9917 49.7062 79.7417C45.8563 81.6583 44.1625 85.725 44.975 88.45C45.5563 90.375 47.4562 90.7 49.2438 89.5333C50.7982 88.5055 52.117 86.9398 53.0625 85C53.6062 83.8833 54.75 84.6833 54.1313 86.625C52.5063 91.7167 49.4 95.7667 45.6125 95.9417C42.3875 96.075 40.3062 92.9167 40.3125 89.0167C40.325 81.3167 46.75 76.25 53.5 75.5C61.6313 74.6 69.3313 77.4917 77.4062 78.7917C83.5875 79.7917 89.5188 79.8167 95.7313 77.9083C96.4688 77.7 96.9813 78.325 96.9375 79.3083C96.875 80.7417 96.0437 82.1167 94 83.6083C91.6687 85.3083 89.2312 85.825 86.6875 85.8583C80.5375 85.925 74.8063 82.725 68.875 81.0083C68.8875 81.35 68.95 81.7667 68.7312 81.9833C65.45 85.2167 62.4813 88.5 60.4937 93.1C60.425 93.2083 60.4625 93.3083 60.575 93.3C62.3063 93.175 63.8563 93.1167 65.4688 92.95C65.75 92.9167 65.7625 92.825 65.7375 92.55C65.6492 91.698 65.7168 90.8301 65.9344 90.0204C66.1521 89.2107 66.5134 88.4832 66.9875 87.9C68.0625 86.625 69.4062 86.4833 70.3 87.4C71.3 88.45 71.2188 90.3417 70.6625 91.7583C70.4148 92.3804 70.0759 92.9298 69.6657 93.3736C69.2555 93.8174 68.7826 94.1466 68.275 94.3417C68.275 94.3417 68.0875 94.3917 68.1125 94.625C68.15 94.9833 69.3625 95.8833 69.4688 96.125C69.575 96.35 69.5187 96.7083 69.3375 96.975C69.2664 97.0935 69.1759 97.1888 69.0731 97.2538C68.9702 97.3188 68.8576 97.3517 68.7437 97.35C68.5375 97.35 68.4125 97.25 68.1438 97.0583C67.4987 96.6069 66.9256 95.9928 66.4563 95.25C66.3063 94.9917 66.225 94.9833 65.8375 95.0083C64.0938 95.15 61.375 95.5 59.5312 95.8083C59.0875 95.875 59.0187 95.9917 58.9312 96.2C55.9937 102.658 52.8563 109.617 49.4125 114.283C45.7125 119.283 42.6437 120.6 39.3875 120.633ZM119.062 89.25C118.494 90.5667 107.506 112.867 106.812 115.167C106.594 115.9 106.562 116.458 106.788 116.867C107.363 117.9 108.644 117.292 109.444 116.55C111.825 114.367 113.475 111.717 115.3 109.4C115.406 109.292 115.588 109.25 115.706 109.4C115.975 109.733 116.369 110.158 116.644 110.542C116.668 110.572 116.688 110.608 116.702 110.648C116.716 110.688 116.723 110.731 116.725 110.776C116.726 110.82 116.72 110.864 116.709 110.905C116.697 110.947 116.679 110.985 116.656 111.017C114.982 113.809 113.088 116.354 111.006 118.608C108.069 121.642 105.138 122.417 103.681 120.475C103.164 119.764 102.854 118.83 102.806 117.842C102.794 117.367 102.613 117.342 102.444 117.558C100.706 119.85 97.6937 122.383 94.9562 120.575C92.6687 119.075 92.1375 115.425 92.5625 112.358C92.5688 112.292 92.525 111.858 92.2438 112.108C91.6659 112.666 91.0355 113.12 90.3687 113.458C89.6514 113.896 88.87 114.115 88.0813 114.1C87.5143 114.107 86.9559 113.916 86.4614 113.546C85.9669 113.176 85.5536 112.64 85.2625 111.992C84.8939 111.105 84.6902 110.113 84.6687 109.1C84.6625 109.008 84.5625 108.833 84.4625 109.058C82.5875 112.867 80.8438 116.55 78.9938 120.417C78.8938 120.6 78.8063 120.717 78.6188 120.725L74.95 120.733C74.725 120.733 74.6188 120.5 74.7375 120.208C75.3875 118.542 78.95 111.625 81.3625 105.742C82.0312 104.125 81.8937 103.292 81.4812 102.933C80.9625 102.483 79.9312 103.158 79.0625 104.042C76.6937 106.433 74.7063 110.167 73.6938 111.833C73.1 112.808 72.5375 114.258 70.9875 116.5C68.5437 120.042 65.3 122.075 62.1875 120.667C61.3659 120.294 60.6252 119.659 60.0303 118.816C59.4354 117.973 59.0044 116.949 58.775 115.833C58.6813 115.4 58.5 115.283 58.3188 115.567C57.8188 116.4 56.7875 117.642 55.925 118.417C55.8312 118.508 55.6 118.692 55.4 118.558C55.0325 118.061 54.7133 117.504 54.45 116.9C54.4123 116.789 54.4017 116.665 54.4196 116.545C54.4376 116.426 54.4832 116.317 54.55 116.233C55.7812 114.792 56.4563 113.975 56.9938 113.067C57.3938 112.4 57.7 111.65 58.0562 110.442C58.8062 107.925 60.5125 103.225 63.9188 100.792C65.1765 99.8398 66.5601 99.2201 67.9938 98.9667C68.6188 98.8833 69.1375 98.9833 69.325 99.6333C69.3938 99.9083 69.5687 100.508 69.675 100.95C69.7438 101.217 69.6937 101.425 69.4563 101.542C67.4563 102.558 65.4375 104.133 64.05 106.625C62.4688 109.442 62.0437 112.842 63.1 114.792C63.8687 116.208 65.1125 116.458 66.3125 115.95C68.125 115.183 69.675 112.925 70.475 110.425C71.3375 107.683 71.475 104.45 70.8375 101.6C70.7375 101.108 70.8313 100.733 71.0687 100.467C71.55 99.9417 72.2188 99.5333 72.4125 99.4C72.6033 99.2639 72.8252 99.2269 73.0353 99.2961C73.2454 99.3654 73.4287 99.536 73.55 99.775C74.2125 101.083 74.5687 102.925 74.6125 104.833C74.65 105.242 74.775 105.25 74.925 105.042C76.1125 103.358 77.2125 101.558 78.475 100.208C79.6312 98.9833 81.1125 97.9833 82.4938 98.025C84.2812 98.075 85.1687 99.6917 85.1125 102.575C85.1062 102.942 85.3 102.908 85.4313 102.667C85.8462 101.838 86.3518 101.096 86.9313 100.467C88.1646 99.1111 89.4375 98.4944 90.75 98.6167C92.375 98.7833 93.675 100.758 93.4062 103.008C93.3414 103.72 93.1477 104.4 92.8417 104.989C92.5357 105.579 92.1267 106.06 91.65 106.392C91.2497 106.679 90.7936 106.797 90.3417 106.732C89.8899 106.666 89.4635 106.42 89.1188 106.025C88.853 105.685 88.658 105.259 88.5528 104.789C88.4476 104.319 88.4359 103.82 88.5188 103.342C88.55 103.133 88.35 102.942 88.1813 103.175C86.5938 105.375 86.475 108.225 87.5125 109.508C88.6562 110.925 90.375 109.975 91.625 108.883C93.9125 106.892 95.6875 104.192 97.7438 102.108C99.1062 100.725 100.662 99.4917 102.406 99.1833C103.364 98.9881 104.344 99.1377 105.244 99.6167C106.494 100.292 107.281 101.7 107.381 102.917C107.406 103.275 107.606 103.317 107.775 103C108.762 100.95 114.056 90.3583 114.494 89.25C114.619 88.9083 114.769 88.8583 115.05 88.8583H118.838C119.056 88.8583 119.156 89.025 119.062 89.25ZM104.562 107.617C104.542 107.667 104.53 107.723 104.527 107.781C104.524 107.838 104.529 107.896 104.544 107.95C104.562 108.117 104.731 108.283 104.894 108.367C104.956 108.392 104.988 108.45 104.919 108.633C104.45 109.967 104.025 110.733 103.437 111.892C102.916 112.913 102.284 113.826 101.562 114.6C100.45 115.825 98.9125 117.158 97.6375 116.267C97.075 115.875 96.825 114.817 96.8438 113.967C96.8688 111.567 97.6688 109.1 99.15 106.675C100.95 103.717 102.944 102.183 104.25 103.025C105.6 103.883 105.175 105.983 104.562 107.617ZM67.3812 91.9417C67.3353 91.4093 67.3863 90.8701 67.5299 90.3696C67.6736 89.8691 67.9055 89.4222 68.2063 89.0667C68.5625 88.65 69.0375 88.55 69.3313 88.8833C69.6562 89.2583 69.5 90.1917 69.1688 90.8333C68.809 91.5559 68.265 92.0799 67.6375 92.3083C67.525 92.3417 67.425 92.275 67.3812 91.9417ZM75 62.5C33.375 62.5 0 79.1417 0 100C0 120.733 33.6437 137.5 75 137.5C116.356 137.5 150 120.667 150 100C150 79.3333 116.356 62.5 75 62.5ZM75 134.233C35.3063 134.233 3.125 118.917 3.125 100.017C3.125 81.1083 35.3125 65.7917 75 65.7917C114.688 65.7917 146.862 81.1083 146.862 100.017C146.862 118.917 114.688 134.233 75 134.233Z" fill="#D9D9D9"/>
</svg>
