<svg width="84" height="82" viewBox="0 0 84 82" fill="none" xmlns="http://www.w3.org/2000/svg">
<rect x="0.5271" width="83.0432" height="82" rx="41" fill="#D9D9D9"/>
<path d="M36.5542 13.7513L30.6804 20.955C28.9217 21.5471 27.2894 22.6326 25.91 24.1269L22.8524 27.4679C21.6799 28.7508 20.1511 29.4557 18.5763 29.4557H16.3003V47.5002C18.6453 47.5848 20.8753 48.7549 22.542 50.799L26.6342 55.8176L27.4388 56.8044L30.5424 60.6107C31.2551 61.4847 32.4276 61.4847 33.1403 60.6107C33.3357 60.371 33.4851 60.0891 33.5656 59.793C33.8874 58.7076 34.6346 57.8899 35.5542 57.6362C36.4737 57.3824 37.4393 57.7207 38.106 58.5525L39.3475 60.0468C40.6809 61.6821 42.8419 61.6821 44.1638 60.0468C44.7845 59.2855 45.1179 58.3128 45.1523 57.3119C45.1983 56.0714 45.796 54.9718 46.7156 54.4361C47.6352 53.9004 48.7042 54.0131 49.5204 54.7321C50.6009 55.6766 52.1067 55.5498 53.0723 54.3656C54.1528 53.0404 54.1528 50.8976 53.0723 49.5866L44.3592 38.9008L40.244 43.553C37.106 47.1055 32.2896 47.1619 29.0941 43.6798C25.4502 39.7044 25.3698 32.7685 28.9102 28.6662L36.968 19.3338C40.1176 15.6967 44.2787 13.6667 48.6123 13.6667C52.7619 13.6667 56.7736 15.5416 59.8657 18.9109L63.3256 22.689H76.993C78.0045 22.689 78.8321 23.704 78.8321 24.9445V54.2669C78.8321 56.7621 77.1884 58.778 75.1538 58.778H71.4755C70.1191 58.778 68.9236 57.8758 68.2914 56.5225H58.5323C58.1415 57.467 57.6242 58.3692 56.9805 59.1587C55.0149 61.5693 52.2906 62.5138 49.7388 61.9922C49.325 63.0213 48.7617 63.9799 48.0605 64.8399C44.9224 68.6884 40.0141 69.0691 36.5197 65.9818C33.6345 68.914 29.3355 68.7307 26.6342 65.4038L23.5421 61.5975L22.7374 60.6107L18.6453 55.592C18.0131 54.8167 17.1854 54.3656 16.3003 54.281C16.3003 56.7621 14.6451 58.778 12.622 58.778H8.94366C6.90908 58.778 5.26532 56.7621 5.26532 54.2669V24.9445C5.26532 23.704 6.09295 22.689 7.10449 22.689H18.5763C18.8062 22.689 19.0246 22.5903 19.1855 22.407L22.2317 19.08C25.4387 15.598 29.5654 13.6667 33.8529 13.6667H35.0369C35.5427 13.6667 36.0599 13.6949 36.5542 13.7513ZM67.7971 49.7558V29.4557H62.2796C61.6014 29.4557 60.9462 29.1455 60.4519 28.5957L56.2104 23.9718C54.1183 21.688 51.417 20.4334 48.6123 20.4334C45.6926 20.4334 42.8879 21.8008 40.7613 24.2538L32.7034 33.5862C31.5195 34.9677 31.5425 37.2938 32.7609 38.6189C33.8299 39.789 35.4507 39.7608 36.4967 38.5766L44.7615 29.216C45.8765 27.9472 47.6237 28.0318 48.6583 29.4134C49.6928 30.7949 49.6238 32.9236 48.4973 34.1924L48.4054 34.3051L56.9575 44.7935C58.107 46.2032 58.8542 47.9372 59.1875 49.7417H67.7856L67.7971 49.7558ZM12.622 52.0113C12.622 51.4131 12.4282 50.8394 12.0833 50.4164C11.7384 49.9934 11.2706 49.7558 10.7828 49.7558C10.2951 49.7558 9.82725 49.9934 9.48234 50.4164C9.13743 50.8394 8.94366 51.4131 8.94366 52.0113C8.94366 52.6095 9.13743 53.1833 9.48234 53.6063C9.82725 54.0293 10.2951 54.2669 10.7828 54.2669C11.2706 54.2669 11.7384 54.0293 12.0833 53.6063C12.4282 53.1833 12.622 52.6095 12.622 52.0113ZM73.3146 54.2669C73.8024 54.2669 74.2702 54.0293 74.6151 53.6063C74.96 53.1833 75.1538 52.6095 75.1538 52.0113C75.1538 51.4131 74.96 50.8394 74.6151 50.4164C74.2702 49.9934 73.8024 49.7558 73.3146 49.7558C72.8269 49.7558 72.3591 49.9934 72.0141 50.4164C71.6692 50.8394 71.4755 51.4131 71.4755 52.0113C71.4755 52.6095 71.6692 53.1833 72.0141 53.6063C72.3591 54.0293 72.8269 54.2669 73.3146 54.2669Z" fill="#1A224A"/>
</svg>
