<svg width="79" height="75" viewBox="0 0 79 75" fill="none" xmlns="http://www.w3.org/2000/svg">
<rect x="0.602112" width="78.0406" height="75" rx="37.5" fill="#D9D9D9"/>
<path fill-rule="evenodd" clip-rule="evenodd" d="M53.0747 14.775L59.0253 20.4938C67.7691 28.9 72.1394 33.1 72.1394 38.3188C72.1394 43.5407 67.7691 47.7407 59.0253 56.1438C50.2782 64.55 45.908 68.75 40.4744 68.75C35.0441 68.75 30.6705 64.55 21.9267 56.1469L15.9761 50.4282C10.9523 45.5969 8.43872 43.1844 7.50548 40.05C6.56899 36.9157 7.36891 33.5875 8.96874 26.9344L9.88897 23.0969C11.2319 17.4969 11.905 14.6969 13.8983 12.7782C15.8916 10.8594 18.8084 10.2157 24.6354 8.92503L28.6285 8.03753C35.5546 6.50316 39.0144 5.73441 42.2758 6.63128C45.5373 7.53128 48.0508 9.94691 53.0747 14.775ZM36.8455 44.775C34.6571 42.675 34.6734 39.6563 35.9838 37.2657C35.6594 36.8153 35.5093 36.27 35.5597 35.7244C35.6101 35.1789 35.8577 34.6674 36.2595 34.279C36.6613 33.8906 37.192 33.6497 37.7594 33.5982C38.3268 33.5467 38.8951 33.6877 39.3656 33.9969C40.4711 33.4344 41.684 33.1344 42.8937 33.1469C43.5405 33.1527 44.1584 33.4052 44.6115 33.8488C45.0645 34.2925 45.3157 34.8909 45.3097 35.5125C45.3036 36.1341 45.0409 36.728 44.5793 37.1634C44.1176 37.5988 43.4949 37.8402 42.8481 37.8344C42.0952 37.8611 41.3836 38.1722 40.8678 38.7C39.6094 39.9094 39.9379 41.1219 40.2923 41.4625C40.65 41.8032 41.9084 42.1188 43.1668 40.9094C45.7161 38.4594 50.1189 37.6469 52.9381 40.3563C55.1265 42.4594 55.1103 45.4782 53.7998 47.8688C54.1222 48.3192 54.2706 48.8638 54.2193 49.4082C54.168 49.9527 53.9203 50.4628 53.5191 50.8503C53.1178 51.2378 52.5882 51.4783 52.0219 51.5302C51.4556 51.582 50.8883 51.4421 50.4181 51.1344C48.9589 51.9038 47.2663 52.1602 45.6316 51.8594C44.9977 51.7343 44.4415 51.3722 44.0854 50.853C43.7293 50.3338 43.6024 49.6998 43.7326 49.0907C43.8628 48.4815 44.2395 47.947 44.7798 47.6047C45.3201 47.2625 45.9797 47.1405 46.6136 47.2657C47.1891 47.3813 48.1191 47.2 48.9158 46.4344C50.1742 45.2219 49.8458 44.0125 49.4913 43.6719C49.1336 43.3313 47.8752 43.0157 46.6168 44.225C44.0675 46.675 39.6647 47.4875 36.8455 44.775ZM33.1841 32.1657C33.7879 31.5852 34.2668 30.8961 34.5935 30.1377C34.9202 29.3794 35.0883 28.5666 35.0881 27.7458C35.088 26.925 34.9196 26.1123 34.5926 25.3541C34.2657 24.5958 33.7865 23.9069 33.1825 23.3266C32.5785 22.7463 31.8614 22.2861 31.0723 21.9721C30.2832 21.6581 29.4375 21.4966 28.5834 21.4967C27.7294 21.4969 26.8837 21.6587 26.0947 21.9729C25.3057 22.2872 24.5889 22.7477 23.9851 23.3282C22.7656 24.5005 22.0807 26.0904 22.081 27.748C22.0813 29.4057 22.7668 30.9953 23.9867 32.1672C25.2066 33.3391 26.8609 33.9974 28.5857 33.9971C30.3106 33.9968 31.9647 33.338 33.1841 32.1657Z" fill="#1A224A"/>
</svg>
