<svg width="514" height="557" viewBox="0 0 514 557" fill="none" xmlns="http://www.w3.org/2000/svg">
<path d="M257.642 79.8367C170.262 79.8367 96.5888 142.499 75.1722 227.442C65.963 228.602 61.4655 229.298 57.6105 230.459C45.403 233.476 42.833 238.117 42.833 247.633V311.92C42.833 321.203 52.0422 327.702 58.4672 328.862C64.8922 330.255 68.9613 330.719 75.6005 331.415H75.6648C97.8096 415.545 170.776 477.163 257.642 477.163C344.487 477.163 417.625 415.36 439.598 331.299C444.952 330.804 450.264 329.992 455.532 328.862C461.957 327.702 471.166 321.203 471.166 311.92V247.633C471.166 238.117 468.596 233.476 456.389 230.459C452.705 229.368 448.336 228.672 439.984 227.604L439.898 226.977C418.267 142.035 344.808 79.8367 257.642 79.8367ZM257.856 126.718C319.536 126.718 372.221 167.564 392.781 224.889C392.781 225.121 392.996 225.353 392.996 225.353L393.253 225.469C348.813 223.635 291.416 221.64 257 221.64C223.054 221.64 166.836 223.589 122.632 225.376H122.717C143.277 167.819 195.962 126.718 257.856 126.718ZM156.984 252.762H168.549C169.62 252.762 169.834 253.226 169.834 254.154V302.892C169.834 304.052 169.62 304.517 168.335 304.517H157.412C156.127 304.517 155.913 304.284 155.913 302.892V254.154C155.913 253.226 156.127 252.762 156.984 252.762ZM195.32 252.994H229.586C230.871 252.994 231.3 253.226 231.3 254.387V262.742C231.3 263.902 230.871 264.366 229.586 264.134H195.962C194.463 264.134 193.821 264.83 193.606 266.455V268.544C193.606 269.704 194.249 270.632 195.748 270.864C199.603 271.561 212.025 272.489 216.736 272.953C225.089 273.882 231.3 275.506 233.013 284.093C233.013 284.789 233.227 287.11 233.227 289.663C233.227 291.288 233.227 293.377 232.799 295.233C231.3 303.356 225.731 304.981 216.736 304.981H181.399C180.114 304.981 179.9 304.749 179.9 303.356V295.233C179.9 293.841 180.114 293.609 181.399 293.609H217.165C218.664 293.609 219.092 293.144 219.306 291.984V288.503C219.092 287.574 218.878 286.182 216.951 285.95C209.026 285.331 201.102 284.557 193.178 283.629C182.898 282.469 180.328 277.827 179.9 273.649C179.686 272.257 179.686 270.4 179.686 268.776C179.686 267.383 179.686 265.294 179.9 263.67C181.399 256.475 186.325 252.994 195.32 252.994ZM256.143 252.994H290.41C291.695 252.994 292.123 253.226 292.123 254.387V262.742C292.123 263.902 291.695 264.366 290.41 264.134H256.786C255.286 264.134 254.644 264.83 254.43 266.455V268.544C254.43 269.704 254.858 270.632 256.571 270.864C260.426 271.561 272.848 272.489 277.346 272.953C285.698 273.882 291.909 275.506 293.622 284.093C293.622 284.789 293.836 287.11 293.836 289.663C293.836 291.288 293.836 293.377 293.408 295.233C291.909 303.356 286.341 304.981 277.346 304.981H242.222C240.937 304.981 240.723 304.749 240.723 303.356V295.233C240.723 293.841 240.937 293.609 242.222 293.609H277.988C279.487 293.609 279.916 293.144 280.13 291.984V288.503C279.916 287.574 279.487 286.182 277.774 285.95C269.85 285.331 261.926 284.557 254.001 283.629C243.721 282.469 241.366 277.827 240.723 273.649C240.509 272.257 240.509 270.4 240.509 268.776C240.509 267.383 240.509 265.294 240.723 263.67C242.222 256.475 247.148 252.994 256.143 252.994ZM89.7355 253.226H100.658C108.796 253.226 109.867 252.994 112.866 257.636C115.221 261.813 134.282 293.609 134.282 293.609V254.851C134.282 253.69 134.496 253.226 135.781 253.226H145.205C146.49 253.226 146.704 253.69 146.704 254.851V303.356C146.704 304.749 146.49 304.981 145.205 304.981H132.355C124.859 304.981 124.216 304.981 121.646 300.339C116.506 291.52 100.658 265.294 100.658 265.294V303.356C100.658 304.749 100.444 304.981 99.1588 304.981H89.7355C88.4505 304.981 88.2363 304.749 88.2363 303.356V254.851C88.2363 253.69 88.4505 253.226 89.7355 253.226ZM329.174 253.226C331.53 253.226 333.243 253.226 333.886 253.458C341.596 253.69 340.311 252.762 343.951 261.349C345.879 266.223 359.586 298.018 361.727 303.588C362.37 305.213 361.941 304.981 360.228 304.981H348.449C347.806 304.981 347.164 304.749 346.95 304.052C346.95 303.82 345.451 300.107 343.309 294.769H315.681C313.54 300.107 311.826 304.052 311.826 304.052C311.612 304.517 311.184 304.981 310.327 304.981H298.976C297.263 304.981 296.621 304.981 297.691 302.66L297.906 302.196C303.26 289.431 315.896 258.796 315.896 258.796C318.466 252.994 317.181 253.458 324.462 253.458C326.39 253.226 326.818 253.226 329.174 253.226ZM370.294 253.226H381.216C389.355 253.226 390.426 252.994 393.424 257.636C395.994 261.813 414.841 293.609 414.841 293.609V254.851C414.841 253.69 415.055 253.226 416.34 253.226H425.763C427.048 253.226 427.262 253.69 427.262 254.851V303.356C427.262 304.749 427.048 304.981 425.763 304.981H412.913C405.417 304.981 404.775 304.981 402.205 300.339C396.851 291.52 381.216 265.294 381.216 265.294V303.356C381.216 304.749 381.002 304.981 379.717 304.981H370.294C369.009 304.981 368.795 304.749 368.795 303.356V254.851C368.795 253.69 369.009 253.226 370.294 253.226ZM329.816 264.83C329.174 264.83 328.531 264.83 328.317 265.062C327.675 265.062 327.246 265.294 327.032 265.759C327.032 265.991 323.606 274.81 319.965 283.861H339.026C336.241 276.202 333.029 268.544 332.172 265.991C331.958 265.294 331.53 265.062 331.101 265.062C330.887 264.83 330.245 264.83 329.816 264.83ZM391.925 334.27C391.86 334.548 391.496 335.198 391.496 335.384C370.08 391.084 318.251 430.538 257.642 430.538C196.605 430.538 144.562 390.619 123.36 334.455L122.931 334.339C161.781 336.451 212.068 338.633 257 338.633C302.296 338.633 352.946 336.428 391.925 334.293" fill="#D9D9D9"/>
</svg>
