<svg width="514" height="557" viewBox="0 0 514 557" fill="none" xmlns="http://www.w3.org/2000/svg">
<path d="M257 191.144C125.759 191.144 19.3821 230.459 19.3821 278.546C19.3821 326.634 125.759 365.926 257 365.926C388.22 365.926 494.596 326.634 494.596 278.546C494.596 230.459 388.22 191.144 257 191.144ZM134.968 335.964C120.918 336.08 108.561 326.681 107.126 310.411C106.322 301.935 108.579 293.451 113.423 286.739C117.599 280.844 124.666 275.947 130.642 274.74C132.569 274.346 135.203 274.601 136.296 275.994C137.988 278.152 137.495 280.496 135.803 281.424C131.241 283.954 125.737 288.271 123.017 294.189C121.783 296.702 121.199 299.53 121.327 302.374C121.455 305.218 122.291 307.971 123.745 310.342C129.378 319.556 145.098 319.811 159.704 305.12C163.323 301.499 166.557 298.065 169.834 293.98C176.259 285.996 178.401 283.072 186.967 270.215C187.067 270.06 187.096 269.921 187.053 269.797C186.996 269.642 186.853 269.565 186.625 269.565C180.907 269.727 175.916 271.584 171.098 275.483C169.706 276.597 167.692 276.434 166.814 274.996C165.829 273.371 166.536 271.213 168.142 270.006C175.916 264.134 184.419 263.09 193.114 261.488C193.114 261.488 193.714 261.535 194.206 260.792C197.783 255.849 200.46 251.393 204.272 246.38C208.084 241.274 213.053 236.632 216.822 233.104C222.091 228.184 225.475 226.537 228.901 224.517C229.822 224.007 228.794 223.38 228.516 223.38C209.326 219.481 189.388 214.422 170.327 222.081C157.134 227.418 151.33 238.744 154.114 246.333C156.106 251.694 162.617 252.6 168.742 249.35C174.068 246.488 178.588 242.127 181.827 236.725C183.691 233.615 187.61 235.843 185.49 241.251C179.921 255.431 169.277 266.71 156.299 267.198C145.248 267.569 138.116 258.773 138.137 247.911C138.18 226.467 160.197 212.356 183.327 210.268C211.19 207.761 237.575 215.814 265.245 219.435C286.426 222.22 306.751 222.289 328.039 216.975C330.566 216.395 332.322 218.135 332.172 220.874C331.958 224.866 329.11 228.695 322.107 232.849C314.118 237.584 305.766 239.023 297.049 239.115C275.975 239.301 256.336 230.389 236.012 225.608C236.055 226.56 236.269 227.72 235.519 228.324C224.275 237.328 214.102 246.473 207.292 259.284C207.056 259.585 207.185 259.864 207.57 259.841C213.503 259.492 218.814 259.33 224.34 258.866C225.303 258.773 225.346 258.518 225.26 257.752C224.958 255.379 225.189 252.962 225.935 250.707C226.681 248.452 227.919 246.426 229.544 244.802C233.228 241.251 237.832 240.856 240.895 243.409C244.321 246.333 244.043 251.602 242.137 255.547C241.288 257.28 240.127 258.809 238.721 260.045C237.316 261.281 235.695 262.198 233.956 262.742C233.956 262.742 233.313 262.881 233.399 263.531C233.527 264.529 237.682 267.035 238.046 267.708C238.41 268.335 238.218 269.333 237.596 270.075C237.353 270.405 237.043 270.671 236.69 270.852C236.338 271.033 235.952 271.124 235.562 271.12C234.855 271.12 234.427 270.841 233.506 270.307C231.296 269.05 229.332 267.34 227.723 265.271C227.209 264.552 226.931 264.529 225.603 264.598C219.628 264.993 210.312 265.967 203.994 266.826C202.473 267.012 202.238 267.337 201.938 267.917C191.872 285.903 181.121 305.282 169.32 318.279C156.641 332.204 146.126 335.871 134.968 335.964ZM407.987 248.561C406.039 252.228 368.388 314.334 366.011 320.739C365.261 322.781 365.154 324.336 365.925 325.474C367.895 328.352 372.286 326.657 375.027 324.592C383.187 318.511 388.841 311.131 395.095 304.679C395.459 304.377 396.08 304.261 396.487 304.679C397.408 305.607 398.757 306.791 399.699 307.859C399.783 307.942 399.851 308.042 399.898 308.154C399.946 308.266 399.972 308.387 399.976 308.51C399.98 308.633 399.962 308.756 399.922 308.871C399.881 308.987 399.82 309.092 399.742 309.181C394.005 316.959 387.514 324.047 380.381 330.324C370.316 338.772 360.271 340.93 355.281 335.523C353.509 333.542 352.446 330.942 352.283 328.189C352.24 326.866 351.619 326.797 351.041 327.4C345.087 333.782 334.764 340.838 325.383 335.801C317.545 331.624 315.724 321.459 317.181 312.918C317.202 312.732 317.052 311.525 316.089 312.222C314.109 313.775 311.948 315.039 309.664 315.981C307.206 317.2 304.528 317.811 301.825 317.769C299.882 317.788 297.969 317.256 296.274 316.226C294.58 315.196 293.164 313.703 292.166 311.897C290.903 309.428 290.205 306.666 290.132 303.844C290.11 303.588 289.767 303.101 289.425 303.727C283 314.334 277.025 324.592 270.685 335.36C270.343 335.871 270.043 336.196 269.4 336.219L256.829 336.242C256.058 336.242 255.694 335.593 256.1 334.78C258.328 330.139 270.535 310.876 278.802 294.491C281.094 289.988 280.623 287.667 279.209 286.669C277.431 285.416 273.898 287.296 270.921 289.756C262.804 296.417 255.993 306.814 252.524 311.456C250.489 314.171 248.562 318.209 243.25 324.452C234.877 334.316 223.761 339.979 213.096 336.057C210.28 335.019 207.742 333.249 205.704 330.903C203.665 328.556 202.189 325.704 201.402 322.596C201.081 321.389 200.46 321.064 199.839 321.853C198.126 324.174 194.592 327.632 191.636 329.79C191.315 330.046 190.523 330.556 189.837 330.185C188.578 328.799 187.484 327.248 186.582 325.567C186.453 325.257 186.416 324.912 186.478 324.578C186.539 324.245 186.696 323.942 186.925 323.71C191.144 319.695 193.457 317.42 195.299 314.891C196.669 313.034 197.719 310.945 198.939 307.58C201.509 300.571 207.356 287.482 219.028 280.705C223.338 278.054 228.079 276.328 232.992 275.622C235.134 275.39 236.911 275.669 237.554 277.479C237.789 278.245 238.389 279.916 238.753 281.146C238.989 281.888 238.817 282.469 238.003 282.794C231.15 285.625 224.232 290.011 219.478 296.951C214.06 304.795 212.603 314.264 216.223 319.695C218.857 323.64 223.119 324.336 227.231 322.921C233.442 320.786 238.753 314.496 241.494 307.534C244.45 299.898 244.921 290.893 242.736 282.956C242.394 281.587 242.715 280.542 243.529 279.8C245.178 278.338 247.47 277.2 248.134 276.829C248.787 276.45 249.548 276.347 250.268 276.54C250.987 276.733 251.616 277.208 252.031 277.873C254.301 281.517 255.522 286.646 255.672 291.961C255.801 293.098 256.229 293.121 256.743 292.541C260.812 287.853 264.581 282.84 268.908 279.08C272.87 275.669 277.945 272.884 282.679 273C288.804 273.139 291.845 277.641 291.652 285.671C291.631 286.693 292.295 286.6 292.744 285.927C294.166 283.618 295.899 281.553 297.884 279.8C302.111 276.024 306.473 274.307 310.97 274.647C316.538 275.112 320.993 280.612 320.072 286.878C319.85 288.86 319.186 290.754 318.137 292.395C317.089 294.037 315.687 295.377 314.054 296.301C312.682 297.1 311.119 297.43 309.571 297.248C308.023 297.065 306.562 296.379 305.38 295.28C304.47 294.334 303.801 293.148 303.441 291.838C303.08 290.528 303.04 289.138 303.324 287.807C303.431 287.226 302.746 286.693 302.168 287.342C296.728 293.469 296.321 301.407 299.876 304.981C303.795 308.926 309.685 306.28 313.968 303.24C321.807 297.693 327.889 290.174 334.935 284.372C339.604 280.519 344.937 277.084 350.912 276.226C354.194 275.682 357.551 276.098 360.635 277.432C364.919 279.312 367.617 283.235 367.96 286.623C368.045 287.621 368.731 287.737 369.309 286.855C372.693 281.146 390.833 251.648 392.332 248.561C392.76 247.61 393.274 247.47 394.238 247.47H407.216C407.966 247.47 408.309 247.935 407.987 248.561ZM358.301 299.712C358.232 299.854 358.19 300.01 358.179 300.169C358.168 300.329 358.188 300.49 358.237 300.641C358.301 301.105 358.879 301.569 359.436 301.801C359.65 301.871 359.757 302.033 359.522 302.544C357.915 306.257 356.459 308.392 354.446 311.618C352.66 314.463 350.495 317.005 348.021 319.161C344.209 322.573 338.94 326.286 334.571 323.803C332.644 322.712 331.787 319.764 331.851 317.397C331.937 310.713 334.678 303.843 339.754 297.09C345.922 288.851 352.754 284.581 357.23 286.925C361.856 289.315 360.4 295.164 358.301 299.712ZM230.893 256.058C230.736 254.575 230.91 253.073 231.403 251.679C231.895 250.285 232.69 249.041 233.72 248.051C234.941 246.89 236.569 246.612 237.575 247.54C238.689 248.584 238.153 251.184 237.018 252.971C235.786 254.983 233.921 256.443 231.771 257.079C231.386 257.172 231.043 256.986 230.893 256.058ZM257 174.062C114.365 174.062 0 220.41 0 278.5C0 336.242 115.286 382.938 257 382.938C398.714 382.938 514 336.057 514 278.5C514 220.943 398.714 174.062 257 174.062ZM257 373.84C120.983 373.84 10.7083 331.183 10.7083 278.546C10.7083 225.887 121.004 183.23 257 183.23C392.996 183.23 503.249 225.887 503.249 278.546C503.249 331.183 392.996 373.84 257 373.84Z" fill="#D9D9D9"/>
</svg>
