<svg width="515" height="557" viewBox="0 0 515 557" fill="none" xmlns="http://www.w3.org/2000/svg">
<path d="M259.474 368.363C280.16 368.363 300.825 367.411 321.36 366.042C342.742 366.264 363.983 362.268 384.04 354.252C393.25 350.039 401.188 343.126 406.958 334.293C412.582 324.649 416.598 314.013 418.824 302.869C423.982 279.09 427.135 254.854 428.244 230.459C430.053 205.831 430.461 181.106 429.467 156.424C430.255 134.517 423.608 113.055 410.777 96.0824C396.525 83.3406 378.804 76.0035 360.329 75.1949C326.875 70.7104 293.183 68.6326 259.474 68.9751C225.766 68.6326 192.074 70.7104 158.62 75.1949C140.145 76.0035 122.424 83.3406 108.172 96.0824C95.3413 113.055 88.6936 134.517 89.4815 156.424C88.4875 181.106 88.896 205.831 90.7046 230.459C91.8135 254.854 94.9665 279.09 100.125 302.869C102.36 313.981 106.376 324.585 111.991 334.2C117.761 343.033 125.699 349.946 134.909 354.159C154.966 362.175 176.207 366.171 197.589 365.949C218.146 367.419 238.774 368.223 259.474 368.363ZM305.739 349.401C303.593 349.796 296.64 349.796 288.894 349.982C279.08 350.214 269.274 350.306 259.474 350.26C249.668 350.237 239.883 350.26 230.055 349.982C222.309 349.796 215.292 349.796 213.189 349.401C211.086 349.007 208.897 348.868 209.584 346.361C210.27 343.855 219.626 310.992 219.626 310.992C225.806 289.153 226.235 287.783 242.115 284.348C253.573 281.854 265.376 281.854 276.834 284.348C292.713 287.714 293.143 289.153 299.323 310.992C299.323 310.992 308.743 343.831 309.365 346.361C309.987 348.891 307.841 349.007 305.739 349.401ZM347.947 333.596C351.552 302.807 354.413 271.955 356.53 241.042L357.003 235.889C361.694 189.291 363.965 142.445 363.805 95.5718C364.111 95.0179 364.544 94.5596 365.064 94.2422C365.583 93.9248 366.17 93.7591 366.766 93.7616C370.586 94.9684 374.534 96.0824 378.375 97.707L380.049 98.4265H380.199C382.506 99.4524 384.756 100.623 386.937 101.931C389.176 103.328 391.25 105.011 393.117 106.944L393.224 107.083C394 107.898 394.717 108.774 395.37 109.706L396.164 110.773C406.448 132.307 410.536 156.678 407.902 180.746C408.379 209.7 406.851 238.653 403.331 267.36L402.43 274.856V275.204L401.679 281.308L401.314 283.977L400.906 286.948L400.22 291.311L399.705 294.235L399.233 296.672C398.778 299.093 398.234 301.493 397.602 303.867C397.373 304.795 397.115 305.7 396.829 306.582C396.55 307.487 396.185 308.717 395.842 309.738C395.499 310.759 395.241 311.525 394.898 312.384C394.418 313.725 393.881 315.042 393.289 316.329C391.443 320.638 388.997 324.614 386.036 328.119C381.529 333.364 347.582 354.786 347.411 339.909C347.454 338.625 347.632 336.521 347.947 333.596ZM133.042 328.189C130.081 324.683 127.635 320.707 125.789 316.399C124.843 314.209 123.977 311.979 123.193 309.715L122.248 306.675C121.948 305.63 121.712 304.841 121.476 303.913L120.811 301.244C120.467 299.759 120.138 298.212 119.824 296.602L119.373 294.282L118.836 291.334L118.171 286.948L117.764 284.047L117.399 281.238L116.734 275.901L116.54 274.322L115.704 267.36C112.184 238.653 110.656 209.7 111.133 180.746C108.505 156.68 112.585 132.314 122.849 110.773L123.6 109.775C124.253 108.844 124.971 107.967 125.746 107.153L125.875 107.014C127.734 105.124 129.794 103.48 132.012 102.117C134.213 100.79 136.484 99.6043 138.814 98.5657L140.552 97.8462C144.372 96.3145 148.32 95.1077 152.14 93.9008C152.736 93.8984 153.323 94.064 153.842 94.3814C154.362 94.6989 154.795 95.1571 155.101 95.7111C154.941 142.584 157.212 189.431 161.903 236.029L162.375 241.181C164.521 272.048 167.289 302.845 170.959 333.596L171.603 340.164C171.388 354.832 137.462 333.434 133.042 328.189ZM186.301 89.4912C210.577 86.3369 235.032 85.0881 259.474 85.7547C283.917 85.0881 308.372 86.3369 332.647 89.4912C333.87 90.025 333.978 90.9998 333.398 93.2974C326.145 121.844 317.777 159.72 310.309 188.452C304.344 211.381 297.434 240.949 271.684 243.873C267.658 244.365 263.612 244.652 259.56 244.732C255.419 244.801 251.299 244.314 247.436 243.873C221.536 240.949 214.691 211.381 208.811 188.452C201.344 159.766 192.975 121.89 185.722 93.2974C184.95 90.9998 185.078 90.025 186.301 89.4912ZM269.066 411.925L275.847 412.83C278.229 413.155 278.787 415.313 278.787 417.796V443.813L253.037 407.167C252.603 406.446 252.008 405.855 251.306 405.449C250.605 405.043 249.82 404.836 249.024 404.846H214.691V411.971L221.128 412.783C223.424 413.155 224.261 414.431 224.261 417.866V444.486C224.261 447.642 223.467 449.128 221.021 449.545L214.584 450.358V457.32H245.677V450.358L239.003 449.545C238.101 449.364 237.294 448.821 236.746 448.025C236.197 447.23 235.945 446.239 236.042 445.252V418.516L261.921 455.371C262.404 456.017 263.016 456.538 263.71 456.896C264.405 457.253 265.164 457.438 265.933 457.436H290.353V417.587C290.353 415.731 290.804 413.155 293.314 412.946L300.095 412.133V405.009H268.98L269.066 411.925ZM172.997 402.827C145.509 402.827 133.192 414.431 133.192 430.909C133.192 447.828 145.509 459.293 172.997 459.293C200.485 459.293 212.609 447.828 212.609 430.909C212.609 414.385 200.292 402.827 172.997 402.827ZM172.997 449.244C161.925 449.244 155.638 444.811 155.638 430.979C155.638 417.146 161.925 412.923 172.997 412.923C184.07 412.923 190.379 417.355 190.379 430.979C190.379 444.602 183.963 449.267 172.89 449.267L172.997 449.244ZM92.2711 411.925L99.0519 412.83C101.348 413.155 102.013 415.151 102.013 417.703V425.85H71.9715V417.587C71.9715 414.501 73.1088 412.946 75.1258 412.946L81.6921 412.133V405.009H42.9169V412.133L49.3544 412.946C51.9294 413.271 52.5946 415.267 52.5088 418.028V444.648C52.5088 447.642 51.7363 449.29 49.2686 449.708L42.8311 450.52V457.483H81.8423V450.52L75.1044 449.592C73.5808 449.383 72.0573 448.338 72.0573 444.95V436.317H102.099V444.393C102.099 446.714 101.713 449.035 99.1377 449.336L92.2711 450.242V457.459H131.282V450.242L124.416 449.406C123.085 449.197 121.562 448.06 121.562 445.066V417.75C121.562 414.942 122.506 413.108 124.501 412.876L131.282 412.064V404.939H92.2711V411.925ZM352.325 404.892H304.194V412.017L310.223 412.69C310.704 412.756 311.168 412.925 311.588 413.186C312.008 413.448 312.376 413.797 312.669 414.214C312.963 414.631 313.177 415.108 313.299 415.615C313.42 416.122 313.447 416.651 313.378 417.17V445.461C313.492 446.401 313.268 447.354 312.754 448.122C312.239 448.89 311.472 449.416 310.61 449.592L304.172 450.497V457.459H352.325C374.47 457.459 383.997 445.855 383.997 430.422C384.104 416.566 374.47 404.892 352.325 404.892ZM344.879 447.317H332.476V414.826H344.879C356.724 414.826 361.68 417.843 361.68 431.071C361.68 444.3 356.724 447.317 344.879 447.317ZM465.217 449.383C463.071 449.081 461.698 446.807 459.96 443.906L438.115 407.794C437.676 406.965 437.054 406.267 436.305 405.761C435.557 405.255 434.704 404.957 433.823 404.892H396.4V412.017L404.983 413.108C405.441 413.157 405.878 413.34 406.247 413.638C406.616 413.935 406.903 414.335 407.077 414.796C407.252 415.257 407.307 415.76 407.236 416.252C407.166 416.743 406.973 417.205 406.679 417.587L390.263 446.482C389.945 447.266 389.457 447.955 388.841 448.492C388.225 449.03 387.498 449.399 386.722 449.569L380.156 450.381V457.343H411.249V450.242L405.906 449.522C403.76 449.197 402.28 447.758 403.76 445.275L406.056 441.26H435.926L437.922 444.556C440.068 447.967 437.922 449.197 435.347 449.522L430.004 450.242V457.367H472.084V450.242L465.217 449.383ZM411.399 432.046L420.755 415.8L430.283 432.046H411.399Z" fill="#D9D9D9"/>
</svg>
