<svg width="514" height="557" viewBox="0 0 514 557" fill="none" xmlns="http://www.w3.org/2000/svg">
<path d="M252.481 423.691C252.464 418.262 253.438 412.883 255.348 407.864C257.259 402.845 260.066 398.285 263.61 394.447C267.153 390.609 271.363 387.569 275.995 385.502C280.628 383.435 285.593 382.382 290.602 382.404C311.291 382.45 328.296 400.854 328.724 423.691C328.506 434.573 324.419 444.944 317.317 452.64C310.214 460.337 300.644 464.765 290.602 465.002C269.4 464.654 252.417 446.25 252.481 423.691ZM290.602 449.777C302.06 449.568 311.527 437.918 311.655 423.691C311.527 409.163 302.06 397.512 290.602 397.605C278.652 397.512 269.164 409.163 269.528 423.691C269.143 437.918 278.652 449.568 290.602 449.777ZM371.836 399.763V462.797H355.795V399.763H332.729V385.653H393.916V399.763H371.836ZM412.956 445.391L406.959 462.797H387.898L417.989 385.676H438.056L467.14 462.797H448.101L442.083 445.391H412.956ZM438.056 432.394L428.033 404.127L417.989 432.371L438.056 432.394ZM76.9284 399.74V462.774H60.8873V399.74H38.8281V385.63H99.009V399.74H76.9284ZM103.035 423.645C103.047 412.701 107.065 402.208 114.208 394.472C121.352 386.735 131.036 382.387 141.136 382.38C151.211 382.477 160.849 386.854 167.978 394.571C175.107 402.287 179.157 412.727 179.257 423.645C179.076 434.54 175.001 444.933 167.891 452.638C160.781 460.344 151.189 464.759 141.136 464.956C131.049 464.871 121.398 460.491 114.266 452.762C107.134 445.033 103.114 434.575 103.035 423.645ZM141.136 449.777C152.701 449.592 162.188 437.941 162.188 423.691C162.188 409.186 152.701 397.535 141.114 397.628C129.292 397.535 119.805 409.186 120.083 423.691C119.805 437.941 129.292 449.592 141.114 449.777M223.354 462.82V433.485L251.453 385.676H233.399L215.344 418.26L198.275 385.676H179.214L207.334 433.485V462.82H223.354ZM253.487 85.6619C146.361 85.6619 59.538 143.984 59.538 215.861C59.538 287.783 146.361 346.059 253.487 346.059C360.614 346.059 447.415 287.806 447.415 215.861C447.415 143.961 360.592 85.6619 253.487 85.6619ZM354.531 141.478C359.564 156.842 337.719 171.277 300.968 178.054L300.904 178.147C296.042 146.259 285.398 121.704 271.906 109.915C314.439 112.746 349.177 125.139 354.531 141.478ZM253.487 139.853C264.11 139.853 273.255 155.728 277.474 181.141H277.538C261.527 182.444 245.448 182.444 229.436 181.141H229.479C233.698 155.728 242.865 139.853 253.466 139.853M152.401 141.478C157.755 125.139 192.493 112.746 235.026 109.915C221.534 121.704 210.89 146.236 206.028 178.147L205.985 178.054C169.213 171.277 147.368 156.842 152.401 141.478ZM91.7701 217.833C91.7701 203.328 96.182 189.519 104.192 176.963L106.098 174.109L106.141 174.016L108.175 171.231L109.118 169.955C110.616 167.998 112.188 166.109 113.829 164.292C116.037 161.822 118.345 159.46 120.747 157.213L120.854 157.097L121.604 156.401L122.332 155.728C127.043 179.4 158.205 199.731 203.308 208.527L203.33 208.48C203.244 211.544 203.194 214.592 203.18 217.624C203.18 266.733 214.873 305.491 232.135 322.944C152.893 316.097 91.7701 271.653 91.7701 217.833ZM253.466 287.714C238.838 287.714 226.974 255.779 226.974 213.679V211.73L227.081 211.915C244.675 213.537 262.365 213.529 279.958 211.892V213.679C279.958 255.779 268.072 287.714 253.466 287.714ZM274.797 322.921C292.059 305.468 303.752 266.71 303.752 217.601C303.752 214.507 303.702 211.466 303.602 208.48C348.727 199.731 379.889 179.377 384.6 155.728L386.956 157.933L387.727 158.675L389.462 160.416C389.833 160.756 390.19 161.12 390.533 161.507L390.704 161.692C391.104 162.095 391.489 162.505 391.861 162.922L393.103 164.268L395.458 167.007L396.658 168.469L397.686 169.769L397.814 169.931L399.763 172.554L400.813 174.039L401.798 175.478L402.74 176.94C410.75 189.496 415.162 203.305 415.162 217.787C415.162 271.607 354.017 316.074 274.797 322.921Z" fill="#D9D9D9"/>
</svg>
