<svg width="35" height="35" viewBox="0 0 35 35" fill="none" xmlns="http://www.w3.org/2000/svg">
<path d="M17.5 2.9165C15.5848 2.9165 13.6885 3.29371 11.9192 4.02659C10.1498 4.75948 8.54217 5.83368 7.18799 7.18786C4.45308 9.92277 2.91663 13.6321 2.91663 17.4998C2.91663 23.9457 7.10204 29.4144 12.8916 31.354C13.6208 31.4707 13.8541 31.0186 13.8541 30.6248V28.1603C9.81454 29.0353 8.95413 26.2061 8.95413 26.2061C8.28329 24.5144 7.33538 24.0623 7.33538 24.0623C6.00829 23.1582 7.43746 23.1873 7.43746 23.1873C8.89579 23.2894 9.66871 24.6894 9.66871 24.6894C10.9375 26.9061 13.0812 26.2498 13.9125 25.8998C14.0437 24.9519 14.4229 24.3103 14.8312 23.9457C11.5937 23.5811 8.19579 22.3269 8.19579 16.7707C8.19579 15.1519 8.74996 13.854 9.69788 12.8186C9.55204 12.454 9.04163 10.9373 9.84371 8.96859C9.84371 8.96859 11.0687 8.57484 13.8541 10.4561C15.0062 10.1353 16.2604 9.97484 17.5 9.97484C18.7395 9.97484 19.9937 10.1353 21.1458 10.4561C23.9312 8.57484 25.1562 8.96859 25.1562 8.96859C25.9583 10.9373 25.4479 12.454 25.302 12.8186C26.25 13.854 26.8041 15.1519 26.8041 16.7707C26.8041 22.3415 23.3916 23.5665 20.1395 23.9311C20.6645 24.3832 21.1458 25.2728 21.1458 26.629V30.6248C21.1458 31.0186 21.3791 31.4853 22.1229 31.354C27.9125 29.3998 32.0833 23.9457 32.0833 17.4998C32.0833 15.5847 31.7061 13.6884 30.9732 11.919C30.2403 10.1497 29.1661 8.54205 27.8119 7.18786C26.4577 5.83368 24.8501 4.75948 23.0808 4.02659C21.3114 3.29371 19.4151 2.9165 17.5 2.9165Z" fill="#0F3460"/>
</svg>
